<svg width="481" height="115" viewBox="0 0 481 115" fill="none" xmlns="http://www.w3.org/2000/svg">
<path d="M37.2 30.56H40.92V45.44H33.48V38H7.44V45.44H0V30.56H3.72V11.34C3.72 3.9 7.44 0.179999 14.88 0.179999H26.04C33.48 0.179999 37.2 3.9 37.2 11.34V30.56ZM29.76 30.56V11.34C29.76 8.86 28.52 7.62 26.04 7.62H14.88C12.4 7.62 11.16 8.86 11.16 11.34V30.56H29.76ZM71.903 28.39C71.903 35.21 68.493 38.62 61.673 38.62H54.853C48.033 38.62 44.623 35.21 44.623 28.39V20.33C44.623 13.51 48.033 10.1 54.853 10.1H61.673C68.493 10.1 71.903 13.51 71.903 20.33V28.39ZM65.083 28.39V20.33C65.083 18.0567 63.9464 16.92 61.673 16.92H54.853C52.5797 16.92 51.443 18.0567 51.443 20.33V28.39C51.443 30.6633 52.5797 31.8 54.853 31.8H61.673C63.9464 31.8 65.083 30.6633 65.083 28.39ZM102.903 38H85.853C79.033 38 75.623 34.59 75.623 27.77V20.95C75.623 14.13 79.033 10.72 85.853 10.72H102.903V17.54H85.853C83.5797 17.54 82.443 18.6767 82.443 20.95V27.77C82.443 30.0433 83.5797 31.18 85.853 31.18H102.903V38ZM133.903 17.54H123.673V38H116.853V17.54H106.623V10.72H133.903V17.54ZM141.343 51.64H144.505C149.01 51.64 152.586 48.974 155.231 43.642L158.021 38L171.661 10.72H164.035L154.673 29.63L145.249 10.72H137.623L150.705 36.884L148.721 40.976C146.985 43.5387 145.559 44.82 144.443 44.82H141.343V51.64ZM180.347 38V17.54H190.577C192.851 17.54 193.987 18.6767 193.987 20.95V38H200.807V20.95C200.807 14.13 197.397 10.72 190.577 10.72H173.527V38H180.347ZM231.807 38H224.987V27.77H211.347V38H204.527V10.72H211.347V20.95H224.987V10.72H231.807V38ZM262.807 28.39C262.807 35.21 259.397 38.62 252.577 38.62H245.757C238.937 38.62 235.527 35.21 235.527 28.39V20.33C235.527 13.51 238.937 10.1 245.757 10.1H252.577C259.397 10.1 262.807 13.51 262.807 20.33V28.39ZM255.987 28.39V20.33C255.987 18.0567 254.851 16.92 252.577 16.92H245.757C243.484 16.92 242.347 18.0567 242.347 20.33V28.39C242.347 30.6633 243.484 31.8 245.757 31.8H252.577C254.851 31.8 255.987 30.6633 255.987 28.39ZM324.807 38H317.987V27.77H304.347V38H297.527V10.72H304.347V20.95H317.987V10.72H324.807V38ZM355.807 38V20.95C355.807 14.13 352.397 10.72 345.577 10.72H329.767V17.54H345.577C347.851 17.54 348.987 18.656 348.987 20.888V20.95H337.083C331.379 20.95 328.527 23.74 328.527 29.32C328.527 35.1067 331.379 38 337.083 38H355.807ZM335.347 29.444C335.347 28.328 335.926 27.77 337.083 27.77H348.987V31.18H337.083C335.926 31.18 335.347 30.6013 335.347 29.444ZM24.924 87.298C26.4947 85.7687 27.28 84.1153 27.28 82.338C27.2387 76.5927 24.3867 73.72 18.724 73.72H0V101H18.724C24.428 101 27.28 98.21 27.28 92.63C27.28 90.6873 26.4947 88.91 24.924 87.298ZM18.724 83.95H6.82V80.54H18.724C19.8813 80.54 20.46 81.16 20.46 82.4C20.46 83.4333 19.8813 83.95 18.724 83.95ZM18.724 94.18H6.82V90.77H18.724C19.8813 90.77 20.46 91.39 20.46 92.63C20.46 93.6633 19.8813 94.18 18.724 94.18ZM58.28 101H41.23C34.41 101 31 97.59 31 90.77V83.95C31 77.13 34.41 73.72 41.23 73.72H58.28V80.54H41.23C38.9567 80.54 37.82 81.6767 37.82 83.95V90.77C37.82 93.0433 38.9567 94.18 41.23 94.18H58.28V101ZM89.9 90.15V83.33C89.9 76.51 86.428 73.1 79.484 73.1H72.416C65.472 73.1 62 76.51 62 83.33V90.15V90.77C62 97.59 65.41 101 72.23 101H88.66V94.18H72.23C69.9567 94.18 68.82 93.0433 68.82 90.77V90.15H89.9ZM68.82 83.33C68.82 81.0567 69.9567 79.92 72.23 79.92H79.67C81.9433 79.92 83.08 81.0567 83.08 83.33H68.82ZM103.153 87.36L93.6055 101H101.913L107.245 93.374L112.577 101H120.885L111.399 87.36L120.885 73.72H112.577L107.245 81.408L101.913 73.72H93.6055L103.153 87.36ZM160.549 101V80.54H170.779C173.052 80.54 174.189 81.6767 174.189 83.95V101H181.009V83.95C181.009 77.13 177.599 73.72 170.779 73.72H153.729V101H160.549ZM205.189 101V80.54H198.369C196.509 80.54 195.372 81.6767 194.959 83.95L191.549 101H184.915L188.139 83.95C189.048 77.13 192.458 73.72 198.369 73.72H212.009V101H205.189ZM243.009 101V83.95C243.009 77.13 239.599 73.72 232.779 73.72H216.969V80.54H232.779C235.052 80.54 236.189 81.656 236.189 83.888V83.95H224.285C218.581 83.95 215.729 86.74 215.729 92.32C215.729 98.1067 218.581 101 224.285 101H243.009ZM222.549 92.444C222.549 91.328 223.127 90.77 224.285 90.77H236.189V94.18H224.285C223.127 94.18 222.549 93.6013 222.549 92.444ZM274.009 80.54H263.779V101H256.959V80.54H246.729V73.72H274.009V80.54ZM318.649 83.95C318.649 77.13 315.239 73.72 308.419 73.72H287.959C281.139 73.72 277.729 77.13 277.729 83.95V90.77C277.729 97.59 281.139 101 287.959 101H294.779V114.64H301.599V101H308.295C315.197 101 318.649 97.59 318.649 90.77V83.95ZM301.599 80.54H308.419C310.692 80.54 311.829 81.6767 311.829 83.95V90.77C311.829 93.0433 310.692 94.18 308.419 94.18H301.599V80.54ZM294.779 94.18H287.959C285.685 94.18 284.549 93.0433 284.549 90.77V83.95C284.549 81.6767 285.685 80.54 287.959 80.54H294.779V94.18ZM349.632 91.39C349.632 98.21 346.222 101.62 339.402 101.62H332.582C325.762 101.62 322.352 98.21 322.352 91.39V83.33C322.352 76.51 325.762 73.1 332.582 73.1H339.402C346.222 73.1 349.632 76.51 349.632 83.33V91.39ZM342.812 91.39V83.33C342.812 81.0567 341.675 79.92 339.402 79.92H332.582C330.308 79.92 329.172 81.0567 329.172 83.33V91.39C329.172 93.6633 330.308 94.8 332.582 94.8H339.402C341.675 94.8 342.812 93.6633 342.812 91.39ZM380.632 83.95C380.632 77.13 377.222 73.72 370.402 73.72H353.352V114.64H360.172V101H370.278C377.18 101 380.632 97.59 380.632 90.77V83.95ZM360.172 80.54H370.402C372.675 80.54 373.812 81.6767 373.812 83.95V90.77C373.812 93.0433 372.675 94.18 370.402 94.18H360.172V80.54ZM418.452 101H411.632V85.872L401.402 101L391.172 85.872V101H384.352V73.72H391.172L401.402 88.848L411.632 73.72H418.452V101ZM449.473 101V83.95C449.473 77.13 446.063 73.72 439.243 73.72H423.433V80.54H439.243C441.517 80.54 442.653 81.656 442.653 83.888V83.95H430.749C425.045 83.95 422.193 86.74 422.193 92.32C422.193 98.1067 425.045 101 430.749 101H449.473ZM429.013 92.444C429.013 91.328 429.592 90.77 430.749 90.77H442.653V94.18H430.749C429.592 94.18 429.013 93.6013 429.013 92.444ZM462.741 87.36L453.193 101H461.501L466.833 93.374L472.165 101H480.473L470.987 87.36L480.473 73.72H472.165L466.833 81.408L461.501 73.72H453.193L462.741 87.36Z" fill="black"/>
</svg>
